<svg class="main-svg" xmlns="http://www.w3.org/2000/svg" xmlns:xlink="http://www.w3.org/1999/xlink" width="700" height="500" style="" viewBox="0 0 700 500"><rect x="0" y="0" width="700" height="500" style="fill: rgb(255, 255, 255); fill-opacity: 1;"/><defs id="defs-4ea0fa"><g class="clips"><clipPath id="clip4ea0faxyplot" class="plotclip"><rect width="458" height="320"/></clipPath><clipPath class="axesclip" id="clip4ea0fax"><rect x="80" y="0" width="458" height="500"/></clipPath><clipPath class="axesclip" id="clip4ea0fay"><rect x="0" y="100" width="700" height="320"/></clipPath><clipPath class="axesclip" id="clip4ea0faxy"><rect x="80" y="100" width="458" height="320"/></clipPath></g><g class="gradients"/><g class="patterns"/></defs><g class="bglayer"/><g class="layer-below"><g class="imagelayer"/><g class="shapelayer"/></g><g class="cartesianlayer"><g class="subplot xy"><g class="layer-subplot"><g class="shapelayer"/><g class="imagelayer"/></g><g class="minor-gridlayer"><g class="x"/><g class="y"/></g><g class="gridlayer"><g class="x"><path class="xgrid crisp" transform="translate(187.59,0)" d="M0,100v320" style="stroke: rgb(235, 240, 248); stroke-opacity: 1; stroke-width: 1px;"/><path class="xgrid crisp" transform="translate(268.53,0)" d="M0,100v320" style="stroke: rgb(235, 240, 248); stroke-opacity: 1; stroke-width: 1px;"/><path class="xgrid crisp" transform="translate(349.47,0)" d="M0,100v320" style="stroke: rgb(235, 240, 248); stroke-opacity: 1; stroke-width: 1px;"/><path class="xgrid crisp" transform="translate(430.41,0)" d="M0,100v320" style="stroke: rgb(235, 240, 248); stroke-opacity: 1; stroke-width: 1px;"/><path class="xgrid crisp" transform="translate(511.35,0)" d="M0,100v320" style="stroke: rgb(235, 240, 248); stroke-opacity: 1; stroke-width: 1px;"/></g><g class="y"><path class="ygrid crisp" transform="translate(0,391.35)" d="M80,0h458" style="stroke: rgb(235, 240, 248); stroke-opacity: 1; stroke-width: 1px;"/><path class="ygrid crisp" transform="translate(0,337.05)" d="M80,0h458" style="stroke: rgb(235, 240, 248); stroke-opacity: 1; stroke-width: 1px;"/><path class="ygrid crisp" transform="translate(0,228.46)" d="M80,0h458" style="stroke: rgb(235, 240, 248); stroke-opacity: 1; stroke-width: 1px;"/><path class="ygrid crisp" transform="translate(0,174.17000000000002)" d="M80,0h458" style="stroke: rgb(235, 240, 248); stroke-opacity: 1; stroke-width: 1px;"/><path class="ygrid crisp" transform="translate(0,119.87)" d="M80,0h458" style="stroke: rgb(235, 240, 248); stroke-opacity: 1; stroke-width: 1px;"/></g></g><g class="zerolinelayer"><path class="xzl zl crisp" transform="translate(106.65,0)" d="M0,100v320" style="stroke: rgb(235, 240, 248); stroke-opacity: 1; stroke-width: 2px;"/><path class="yzl zl crisp" transform="translate(0,282.76)" d="M80,0h458" style="stroke: rgb(235, 240, 248); stroke-opacity: 1; stroke-width: 2px;"/></g><g class="layer-between"><g class="shapelayer"/><g class="imagelayer"/></g><path class="xlines-below"/><path class="ylines-below"/><g class="overlines-below"/><g class="xaxislayer-below"/><g class="yaxislayer-below"/><g class="overaxes-below"/><g class="overplot"><g class="xy" transform="translate(80,100)" clip-path="url(#clip4ea0faxyplot)"><g class="scatterlayer mlayer"><g class="trace scatter tracea20568" style="stroke-miterlimit: 2; opacity: 1;"><g class="fills"/><g class="errorbars"><g class="errorbar"><path class="yerror" d="M23.65,66.13h6m-3,0V286.63m-3,0h6" style="vector-effect: none; stroke-width: 1.2px; stroke: rgb(31, 119, 180); stroke-opacity: 1;"/></g><g class="errorbar"><path class="yerror" d="M35.79,45.84h6m-3,0V258.53m-3,0h6" style="vector-effect: none; stroke-width: 1.2px; stroke: rgb(31, 119, 180); stroke-opacity: 1;"/></g><g class="errorbar"><path class="yerror" d="M43.89,52.1h6m-3,0V230.9m-3,0h6" style="vector-effect: none; stroke-width: 1.2px; stroke: rgb(31, 119, 180); stroke-opacity: 1;"/></g><g class="errorbar"><path class="yerror" d="M56.03,51.01h6m-3,0V218.38m-3,0h6" style="vector-effect: none; stroke-width: 1.2px; stroke: rgb(31, 119, 180); stroke-opacity: 1;"/></g><g class="errorbar"><path class="yerror" d="M64.12,17.14h6m-3,0V262.77m-3,0h6" style="vector-effect: none; stroke-width: 1.2px; stroke: rgb(31, 119, 180); stroke-opacity: 1;"/></g><g class="errorbar"><path class="yerror" d="M72.21,34.82h6m-3,0V224.52m-3,0h6" style="vector-effect: none; stroke-width: 1.2px; stroke: rgb(31, 119, 180); stroke-opacity: 1;"/></g><g class="errorbar"><path class="yerror" d="M84.36,56.77h6m-3,0V211.66m-3,0h6" style="vector-effect: none; stroke-width: 1.2px; stroke: rgb(31, 119, 180); stroke-opacity: 1;"/></g><g class="errorbar"><path class="yerror" d="M96.5,60.29h6m-3,0V210.97m-3,0h6" style="vector-effect: none; stroke-width: 1.2px; stroke: rgb(31, 119, 180); stroke-opacity: 1;"/></g><g class="errorbar"><path class="yerror" d="M104.59,89.3h6m-3,0V220.18m-3,0h6" style="vector-effect: none; stroke-width: 1.2px; stroke: rgb(31, 119, 180); stroke-opacity: 1;"/></g><g class="errorbar"><path class="yerror" d="M116.73,128.04h6m-3,0V218.16m-3,0h6" style="vector-effect: none; stroke-width: 1.2px; stroke: rgb(31, 119, 180); stroke-opacity: 1;"/></g><g class="errorbar"><path class="yerror" d="M124.83,142.68h6m-3,0V208.35m-3,0h6" style="vector-effect: none; stroke-width: 1.2px; stroke: rgb(31, 119, 180); stroke-opacity: 1;"/></g><g class="errorbar"><path class="yerror" d="M136.97,166.1h6m-3,0V209.55m-3,0h6" style="vector-effect: none; stroke-width: 1.2px; stroke: rgb(31, 119, 180); stroke-opacity: 1;"/></g><g class="errorbar"><path class="yerror" d="M145.06,181.17h6m-3,0V212.44m-3,0h6" style="vector-effect: none; stroke-width: 1.2px; stroke: rgb(31, 119, 180); stroke-opacity: 1;"/></g><g class="errorbar"><path class="yerror" d="M157.2,190.11h6m-3,0V219.47m-3,0h6" style="vector-effect: none; stroke-width: 1.2px; stroke: rgb(31, 119, 180); stroke-opacity: 1;"/></g><g class="errorbar"><path class="yerror" d="M165.3,192.57h6m-3,0V227.16m-3,0h6" style="vector-effect: none; stroke-width: 1.2px; stroke: rgb(31, 119, 180); stroke-opacity: 1;"/></g><g class="errorbar"><path class="yerror" d="M177.44,193.09h6m-3,0V239.67m-3,0h6" style="vector-effect: none; stroke-width: 1.2px; stroke: rgb(31, 119, 180); stroke-opacity: 1;"/></g><g class="errorbar"><path class="yerror" d="M185.53,194.93h6m-3,0V244.74m-3,0h6" style="vector-effect: none; stroke-width: 1.2px; stroke: rgb(31, 119, 180); stroke-opacity: 1;"/></g><g class="errorbar"><path class="yerror" d="M197.67,195.85h6m-3,0V252.94m-3,0h6" style="vector-effect: none; stroke-width: 1.2px; stroke: rgb(31, 119, 180); stroke-opacity: 1;"/></g><g class="errorbar"><path class="yerror" d="M205.77,197.75h6m-3,0V255.98m-3,0h6" style="vector-effect: none; stroke-width: 1.2px; stroke: rgb(31, 119, 180); stroke-opacity: 1;"/></g><g class="errorbar"><path class="yerror" d="M217.91,196.05h6m-3,0V263.29m-3,0h6" style="vector-effect: none; stroke-width: 1.2px; stroke: rgb(31, 119, 180); stroke-opacity: 1;"/></g><g class="errorbar"><path class="yerror" d="M226,194.43h6m-3,0V267.51m-3,0h6" style="vector-effect: none; stroke-width: 1.2px; stroke: rgb(31, 119, 180); stroke-opacity: 1;"/></g><g class="errorbar"><path class="yerror" d="M238.14,194.96h6m-3,0V269.27m-3,0h6" style="vector-effect: none; stroke-width: 1.2px; stroke: rgb(31, 119, 180); stroke-opacity: 1;"/></g><g class="errorbar"><path class="yerror" d="M246.24,195.86h6m-3,0V268.93m-3,0h6" style="vector-effect: none; stroke-width: 1.2px; stroke: rgb(31, 119, 180); stroke-opacity: 1;"/></g><g class="errorbar"><path class="yerror" d="M258.38,195.71h6m-3,0V268.63m-3,0h6" style="vector-effect: none; stroke-width: 1.2px; stroke: rgb(31, 119, 180); stroke-opacity: 1;"/></g><g class="errorbar"><path class="yerror" d="M266.47,196.12h6m-3,0V267.14m-3,0h6" style="vector-effect: none; stroke-width: 1.2px; stroke: rgb(31, 119, 180); stroke-opacity: 1;"/></g><g class="errorbar"><path class="yerror" d="M274.56,194.09h6m-3,0V267.54m-3,0h6" style="vector-effect: none; stroke-width: 1.2px; stroke: rgb(31, 119, 180); stroke-opacity: 1;"/></g><g class="errorbar"><path class="yerror" d="M286.71,194.98h6m-3,0V263.24m-3,0h6" style="vector-effect: none; stroke-width: 1.2px; stroke: rgb(31, 119, 180); stroke-opacity: 1;"/></g><g class="errorbar"><path class="yerror" d="M298.85,197.2h6m-3,0V256.57m-3,0h6" style="vector-effect: none; stroke-width: 1.2px; stroke: rgb(31, 119, 180); stroke-opacity: 1;"/></g><g class="errorbar"><path class="yerror" d="M306.94,196.9h6m-3,0V253.37m-3,0h6" style="vector-effect: none; stroke-width: 1.2px; stroke: rgb(31, 119, 180); stroke-opacity: 1;"/></g><g class="errorbar"><path class="yerror" d="M319.08,195.88h6m-3,0V248.37m-3,0h6" style="vector-effect: none; stroke-width: 1.2px; stroke: rgb(31, 119, 180); stroke-opacity: 1;"/></g><g class="errorbar"><path class="yerror" d="M327.18,196.63h6m-3,0V243.13m-3,0h6" style="vector-effect: none; stroke-width: 1.2px; stroke: rgb(31, 119, 180); stroke-opacity: 1;"/></g><g class="errorbar"><path class="yerror" d="M339.32,194.63h6m-3,0V237.71m-3,0h6" style="vector-effect: none; stroke-width: 1.2px; stroke: rgb(31, 119, 180); stroke-opacity: 1;"/></g><g class="errorbar"><path class="yerror" d="M347.41,194.91h6m-3,0V232.02m-3,0h6" style="vector-effect: none; stroke-width: 1.2px; stroke: rgb(31, 119, 180); stroke-opacity: 1;"/></g><g class="errorbar"><path class="yerror" d="M359.55,194.43h6m-3,0V223.73m-3,0h6" style="vector-effect: none; stroke-width: 1.2px; stroke: rgb(31, 119, 180); stroke-opacity: 1;"/></g><g class="errorbar"><path class="yerror" d="M367.65,194.01h6m-3,0V217.88m-3,0h6" style="vector-effect: none; stroke-width: 1.2px; stroke: rgb(31, 119, 180); stroke-opacity: 1;"/></g><g class="errorbar"><path class="yerror" d="M379.79,191.92h6m-3,0V210.01m-3,0h6" style="vector-effect: none; stroke-width: 1.2px; stroke: rgb(31, 119, 180); stroke-opacity: 1;"/></g><g class="errorbar"><path class="yerror" d="M387.88,191h6m-3,0V203.96m-3,0h6" style="vector-effect: none; stroke-width: 1.2px; stroke: rgb(31, 119, 180); stroke-opacity: 1;"/></g><g class="errorbar"><path class="yerror" d="M400.02,188.67h6m-3,0V195.63m-3,0h6" style="vector-effect: none; stroke-width: 1.2px; stroke: rgb(31, 119, 180); stroke-opacity: 1;"/></g><g class="errorbar"><path class="yerror" d="M408.12,186.71h6m-3,0V190.62m-3,0h6" style="vector-effect: none; stroke-width: 1.2px; stroke: rgb(31, 119, 180); stroke-opacity: 1;"/></g><g class="errorbar"><path class="yerror" d="M420.26,183.85h6m-3,0V184.5m-3,0h6" style="vector-effect: none; stroke-width: 1.2px; stroke: rgb(31, 119, 180); stroke-opacity: 1;"/></g><g class="errorbar"><path class="yerror" d="M428.35,182.76h6m-3,0V182.76m-3,0h6" style="vector-effect: none; stroke-width: 1.2px; stroke: rgb(31, 119, 180); stroke-opacity: 1;"/></g></g><g class="lines"><path class="js-line" d="M26.65,176.38L38.79,152.19L46.89,141.5L59.03,134.69L67.12,139.95L75.21,129.67L87.36,134.22L99.5,135.63L107.59,154.74L119.73,173.1L127.83,175.51L148.06,196.8L160.2,204.79L168.3,209.87L180.44,216.38L200.67,224.4L208.77,226.86L229,230.97L241.14,232.11L261.38,232.17L269.47,231.63L289.71,229.11L301.85,226.88L322.08,222.13L330.18,219.88L350.41,213.47L362.55,209.08L390.88,197.48L403.02,192.15L423.26,184.17L431.35,182.76" style="vector-effect: none; fill: none; stroke: rgb(31, 119, 180); stroke-opacity: 1; stroke-width: 2px; opacity: 1;"/></g><g class="points"><path class="point" transform="translate(26.65,176.38)" d="M3,0A3,3 0 1,1 0,-3A3,3 0 0,1 3,0Z" style="opacity: 1; stroke-width: 0px; fill: rgb(31, 119, 180); fill-opacity: 1;"/><path class="point" transform="translate(38.79,152.19)" d="M3,0A3,3 0 1,1 0,-3A3,3 0 0,1 3,0Z" style="opacity: 1; stroke-width: 0px; fill: rgb(31, 119, 180); fill-opacity: 1;"/><path class="point" transform="translate(46.89,141.5)" d="M3,0A3,3 0 1,1 0,-3A3,3 0 0,1 3,0Z" style="opacity: 1; stroke-width: 0px; fill: rgb(31, 119, 180); fill-opacity: 1;"/><path class="point" transform="translate(59.03,134.69)" d="M3,0A3,3 0 1,1 0,-3A3,3 0 0,1 3,0Z" style="opacity: 1; stroke-width: 0px; fill: rgb(31, 119, 180); fill-opacity: 1;"/><path class="point" transform="translate(67.12,139.95)" d="M3,0A3,3 0 1,1 0,-3A3,3 0 0,1 3,0Z" style="opacity: 1; stroke-width: 0px; fill: rgb(31, 119, 180); fill-opacity: 1;"/><path class="point" transform="translate(75.21,129.67)" d="M3,0A3,3 0 1,1 0,-3A3,3 0 0,1 3,0Z" style="opacity: 1; stroke-width: 0px; fill: rgb(31, 119, 180); fill-opacity: 1;"/><path class="point" transform="translate(87.36,134.22)" d="M3,0A3,3 0 1,1 0,-3A3,3 0 0,1 3,0Z" style="opacity: 1; stroke-width: 0px; fill: rgb(31, 119, 180); fill-opacity: 1;"/><path class="point" transform="translate(99.5,135.63)" d="M3,0A3,3 0 1,1 0,-3A3,3 0 0,1 3,0Z" style="opacity: 1; stroke-width: 0px; fill: rgb(31, 119, 180); fill-opacity: 1;"/><path class="point" transform="translate(107.59,154.74)" d="M3,0A3,3 0 1,1 0,-3A3,3 0 0,1 3,0Z" style="opacity: 1; stroke-width: 0px; fill: rgb(31, 119, 180); fill-opacity: 1;"/><path class="point" transform="translate(119.73,173.1)" d="M3,0A3,3 0 1,1 0,-3A3,3 0 0,1 3,0Z" style="opacity: 1; stroke-width: 0px; fill: rgb(31, 119, 180); fill-opacity: 1;"/><path class="point" transform="translate(127.83,175.51)" d="M3,0A3,3 0 1,1 0,-3A3,3 0 0,1 3,0Z" style="opacity: 1; stroke-width: 0px; fill: rgb(31, 119, 180); fill-opacity: 1;"/><path class="point" transform="translate(139.97,187.82)" d="M3,0A3,3 0 1,1 0,-3A3,3 0 0,1 3,0Z" style="opacity: 1; stroke-width: 0px; fill: rgb(31, 119, 180); fill-opacity: 1;"/><path class="point" transform="translate(148.06,196.8)" d="M3,0A3,3 0 1,1 0,-3A3,3 0 0,1 3,0Z" style="opacity: 1; stroke-width: 0px; fill: rgb(31, 119, 180); fill-opacity: 1;"/><path class="point" transform="translate(160.2,204.79)" d="M3,0A3,3 0 1,1 0,-3A3,3 0 0,1 3,0Z" style="opacity: 1; stroke-width: 0px; fill: rgb(31, 119, 180); fill-opacity: 1;"/><path class="point" transform="translate(168.3,209.87)" d="M3,0A3,3 0 1,1 0,-3A3,3 0 0,1 3,0Z" style="opacity: 1; stroke-width: 0px; fill: rgb(31, 119, 180); fill-opacity: 1;"/><path class="point" transform="translate(180.44,216.38)" d="M3,0A3,3 0 1,1 0,-3A3,3 0 0,1 3,0Z" style="opacity: 1; stroke-width: 0px; fill: rgb(31, 119, 180); fill-opacity: 1;"/><path class="point" transform="translate(188.53,219.83)" d="M3,0A3,3 0 1,1 0,-3A3,3 0 0,1 3,0Z" style="opacity: 1; stroke-width: 0px; fill: rgb(31, 119, 180); fill-opacity: 1;"/><path class="point" transform="translate(200.67,224.4)" d="M3,0A3,3 0 1,1 0,-3A3,3 0 0,1 3,0Z" style="opacity: 1; stroke-width: 0px; fill: rgb(31, 119, 180); fill-opacity: 1;"/><path class="point" transform="translate(208.77,226.86)" d="M3,0A3,3 0 1,1 0,-3A3,3 0 0,1 3,0Z" style="opacity: 1; stroke-width: 0px; fill: rgb(31, 119, 180); fill-opacity: 1;"/><path class="point" transform="translate(220.91,229.67)" d="M3,0A3,3 0 1,1 0,-3A3,3 0 0,1 3,0Z" style="opacity: 1; stroke-width: 0px; fill: rgb(31, 119, 180); fill-opacity: 1;"/><path class="point" transform="translate(229,230.97)" d="M3,0A3,3 0 1,1 0,-3A3,3 0 0,1 3,0Z" style="opacity: 1; stroke-width: 0px; fill: rgb(31, 119, 180); fill-opacity: 1;"/><path class="point" transform="translate(241.14,232.11)" d="M3,0A3,3 0 1,1 0,-3A3,3 0 0,1 3,0Z" style="opacity: 1; stroke-width: 0px; fill: rgb(31, 119, 180); fill-opacity: 1;"/><path class="point" transform="translate(249.24,232.39)" d="M3,0A3,3 0 1,1 0,-3A3,3 0 0,1 3,0Z" style="opacity: 1; stroke-width: 0px; fill: rgb(31, 119, 180); fill-opacity: 1;"/><path class="point" transform="translate(261.38,232.17)" d="M3,0A3,3 0 1,1 0,-3A3,3 0 0,1 3,0Z" style="opacity: 1; stroke-width: 0px; fill: rgb(31, 119, 180); fill-opacity: 1;"/><path class="point" transform="translate(269.47,231.63)" d="M3,0A3,3 0 1,1 0,-3A3,3 0 0,1 3,0Z" style="opacity: 1; stroke-width: 0px; fill: rgb(31, 119, 180); fill-opacity: 1;"/><path class="point" transform="translate(277.56,230.81)" d="M3,0A3,3 0 1,1 0,-3A3,3 0 0,1 3,0Z" style="opacity: 1; stroke-width: 0px; fill: rgb(31, 119, 180); fill-opacity: 1;"/><path class="point" transform="translate(289.71,229.11)" d="M3,0A3,3 0 1,1 0,-3A3,3 0 0,1 3,0Z" style="opacity: 1; stroke-width: 0px; fill: rgb(31, 119, 180); fill-opacity: 1;"/><path class="point" transform="translate(301.85,226.88)" d="M3,0A3,3 0 1,1 0,-3A3,3 0 0,1 3,0Z" style="opacity: 1; stroke-width: 0px; fill: rgb(31, 119, 180); fill-opacity: 1;"/><path class="point" transform="translate(309.94,225.13)" d="M3,0A3,3 0 1,1 0,-3A3,3 0 0,1 3,0Z" style="opacity: 1; stroke-width: 0px; fill: rgb(31, 119, 180); fill-opacity: 1;"/><path class="point" transform="translate(322.08,222.13)" d="M3,0A3,3 0 1,1 0,-3A3,3 0 0,1 3,0Z" style="opacity: 1; stroke-width: 0px; fill: rgb(31, 119, 180); fill-opacity: 1;"/><path class="point" transform="translate(330.18,219.88)" d="M3,0A3,3 0 1,1 0,-3A3,3 0 0,1 3,0Z" style="opacity: 1; stroke-width: 0px; fill: rgb(31, 119, 180); fill-opacity: 1;"/><path class="point" transform="translate(342.32,216.17)" d="M3,0A3,3 0 1,1 0,-3A3,3 0 0,1 3,0Z" style="opacity: 1; stroke-width: 0px; fill: rgb(31, 119, 180); fill-opacity: 1;"/><path class="point" transform="translate(350.41,213.47)" d="M3,0A3,3 0 1,1 0,-3A3,3 0 0,1 3,0Z" style="opacity: 1; stroke-width: 0px; fill: rgb(31, 119, 180); fill-opacity: 1;"/><path class="point" transform="translate(362.55,209.08)" d="M3,0A3,3 0 1,1 0,-3A3,3 0 0,1 3,0Z" style="opacity: 1; stroke-width: 0px; fill: rgb(31, 119, 180); fill-opacity: 1;"/><path class="point" transform="translate(370.65,205.95)" d="M3,0A3,3 0 1,1 0,-3A3,3 0 0,1 3,0Z" style="opacity: 1; stroke-width: 0px; fill: rgb(31, 119, 180); fill-opacity: 1;"/><path class="point" transform="translate(382.79,200.96)" d="M3,0A3,3 0 1,1 0,-3A3,3 0 0,1 3,0Z" style="opacity: 1; stroke-width: 0px; fill: rgb(31, 119, 180); fill-opacity: 1;"/><path class="point" transform="translate(390.88,197.48)" d="M3,0A3,3 0 1,1 0,-3A3,3 0 0,1 3,0Z" style="opacity: 1; stroke-width: 0px; fill: rgb(31, 119, 180); fill-opacity: 1;"/><path class="point" transform="translate(403.02,192.15)" d="M3,0A3,3 0 1,1 0,-3A3,3 0 0,1 3,0Z" style="opacity: 1; stroke-width: 0px; fill: rgb(31, 119, 180); fill-opacity: 1;"/><path class="point" transform="translate(411.12,188.66)" d="M3,0A3,3 0 1,1 0,-3A3,3 0 0,1 3,0Z" style="opacity: 1; stroke-width: 0px; fill: rgb(31, 119, 180); fill-opacity: 1;"/><path class="point" transform="translate(423.26,184.17)" d="M3,0A3,3 0 1,1 0,-3A3,3 0 0,1 3,0Z" style="opacity: 1; stroke-width: 0px; fill: rgb(31, 119, 180); fill-opacity: 1;"/><path class="point" transform="translate(431.35,182.76)" d="M3,0A3,3 0 1,1 0,-3A3,3 0 0,1 3,0Z" style="opacity: 1; stroke-width: 0px; fill: rgb(31, 119, 180); fill-opacity: 1;"/></g><g class="text"/></g><g class="trace scatter traceab0195" style="stroke-miterlimit: 2; opacity: 1;"><g class="fills"/><g class="errorbars"><g class="errorbar"><path class="yerror" d="M23.65,140.44h6m-3,0V302.86m-3,0h6" style="vector-effect: none; stroke-width: 1.2px; stroke: rgb(255, 127, 14); stroke-opacity: 1;"/></g><g class="errorbar"><path class="yerror" d="M35.79,139.51h6m-3,0V242.6m-3,0h6" style="vector-effect: none; stroke-width: 1.2px; stroke: rgb(255, 127, 14); stroke-opacity: 1;"/></g><g class="errorbar"><path class="yerror" d="M43.89,102.74h6m-3,0V194.61m-3,0h6" style="vector-effect: none; stroke-width: 1.2px; stroke: rgb(255, 127, 14); stroke-opacity: 1;"/></g><g class="errorbar"><path class="yerror" d="M56.03,48.47h6m-3,0V209.61m-3,0h6" style="vector-effect: none; stroke-width: 1.2px; stroke: rgb(255, 127, 14); stroke-opacity: 1;"/></g><g class="errorbar"><path class="yerror" d="M64.12,75.63h6m-3,0V196.63m-3,0h6" style="vector-effect: none; stroke-width: 1.2px; stroke: rgb(255, 127, 14); stroke-opacity: 1;"/></g><g class="errorbar"><path class="yerror" d="M72.21,17.82h6m-3,0V208.64m-3,0h6" style="vector-effect: none; stroke-width: 1.2px; stroke: rgb(255, 127, 14); stroke-opacity: 1;"/></g><g class="errorbar"><path class="yerror" d="M84.36,18.32h6m-3,0V214.6m-3,0h6" style="vector-effect: none; stroke-width: 1.2px; stroke: rgb(255, 127, 14); stroke-opacity: 1;"/></g><g class="errorbar"><path class="yerror" d="M96.5,41.85h6m-3,0V204.12m-3,0h6" style="vector-effect: none; stroke-width: 1.2px; stroke: rgb(255, 127, 14); stroke-opacity: 1;"/></g><g class="errorbar"><path class="yerror" d="M104.59,69.08h6m-3,0V212.58m-3,0h6" style="vector-effect: none; stroke-width: 1.2px; stroke: rgb(255, 127, 14); stroke-opacity: 1;"/></g><g class="errorbar"><path class="yerror" d="M116.73,103.23h6m-3,0V206.8m-3,0h6" style="vector-effect: none; stroke-width: 1.2px; stroke: rgb(255, 127, 14); stroke-opacity: 1;"/></g><g class="errorbar"><path class="yerror" d="M124.83,111.41h6m-3,0V197.5m-3,0h6" style="vector-effect: none; stroke-width: 1.2px; stroke: rgb(255, 127, 14); stroke-opacity: 1;"/></g><g class="errorbar"><path class="yerror" d="M136.97,123.61h6m-3,0V198.44m-3,0h6" style="vector-effect: none; stroke-width: 1.2px; stroke: rgb(255, 127, 14); stroke-opacity: 1;"/></g><g class="errorbar"><path class="yerror" d="M145.06,127.08h6m-3,0V202.6m-3,0h6" style="vector-effect: none; stroke-width: 1.2px; stroke: rgb(255, 127, 14); stroke-opacity: 1;"/></g><g class="errorbar"><path class="yerror" d="M157.2,132.06h6m-3,0V202.58m-3,0h6" style="vector-effect: none; stroke-width: 1.2px; stroke: rgb(255, 127, 14); stroke-opacity: 1;"/></g><g class="errorbar"><path class="yerror" d="M165.3,138.92h6m-3,0V201.1m-3,0h6" style="vector-effect: none; stroke-width: 1.2px; stroke: rgb(255, 127, 14); stroke-opacity: 1;"/></g><g class="errorbar"><path class="yerror" d="M177.44,140.36h6m-3,0V205.62m-3,0h6" style="vector-effect: none; stroke-width: 1.2px; stroke: rgb(255, 127, 14); stroke-opacity: 1;"/></g><g class="errorbar"><path class="yerror" d="M185.53,147.31h6m-3,0V201.77m-3,0h6" style="vector-effect: none; stroke-width: 1.2px; stroke: rgb(255, 127, 14); stroke-opacity: 1;"/></g><g class="errorbar"><path class="yerror" d="M197.67,150.37h6m-3,0V202.97m-3,0h6" style="vector-effect: none; stroke-width: 1.2px; stroke: rgb(255, 127, 14); stroke-opacity: 1;"/></g><g class="errorbar"><path class="yerror" d="M205.77,154.89h6m-3,0V200.96m-3,0h6" style="vector-effect: none; stroke-width: 1.2px; stroke: rgb(255, 127, 14); stroke-opacity: 1;"/></g><g class="errorbar"><path class="yerror" d="M217.91,155.74h6m-3,0V203.39m-3,0h6" style="vector-effect: none; stroke-width: 1.2px; stroke: rgb(255, 127, 14); stroke-opacity: 1;"/></g><g class="errorbar"><path class="yerror" d="M226,157.33h6m-3,0V203.72m-3,0h6" style="vector-effect: none; stroke-width: 1.2px; stroke: rgb(255, 127, 14); stroke-opacity: 1;"/></g><g class="errorbar"><path class="yerror" d="M238.14,160.48h6m-3,0V203.11m-3,0h6" style="vector-effect: none; stroke-width: 1.2px; stroke: rgb(255, 127, 14); stroke-opacity: 1;"/></g><g class="errorbar"><path class="yerror" d="M246.24,162.73h6m-3,0V202.38m-3,0h6" style="vector-effect: none; stroke-width: 1.2px; stroke: rgb(255, 127, 14); stroke-opacity: 1;"/></g><g class="errorbar"><path class="yerror" d="M258.38,164.8h6m-3,0V202.32m-3,0h6" style="vector-effect: none; stroke-width: 1.2px; stroke: rgb(255, 127, 14); stroke-opacity: 1;"/></g><g class="errorbar"><path class="yerror" d="M266.47,166.56h6m-3,0V201.77m-3,0h6" style="vector-effect: none; stroke-width: 1.2px; stroke: rgb(255, 127, 14); stroke-opacity: 1;"/></g><g class="errorbar"><path class="yerror" d="M274.56,167.66h6m-3,0V201.76m-3,0h6" style="vector-effect: none; stroke-width: 1.2px; stroke: rgb(255, 127, 14); stroke-opacity: 1;"/></g><g class="errorbar"><path class="yerror" d="M286.71,170.42h6m-3,0V200.45m-3,0h6" style="vector-effect: none; stroke-width: 1.2px; stroke: rgb(255, 127, 14); stroke-opacity: 1;"/></g><g class="errorbar"><path class="yerror" d="M298.85,172.69h6m-3,0V199.41m-3,0h6" style="vector-effect: none; stroke-width: 1.2px; stroke: rgb(255, 127, 14); stroke-opacity: 1;"/></g><g class="errorbar"><path class="yerror" d="M306.94,173.58h6m-3,0V199.21m-3,0h6" style="vector-effect: none; stroke-width: 1.2px; stroke: rgb(255, 127, 14); stroke-opacity: 1;"/></g><g class="errorbar"><path class="yerror" d="M319.08,175.51h6m-3,0V198.13m-3,0h6" style="vector-effect: none; stroke-width: 1.2px; stroke: rgb(255, 127, 14); stroke-opacity: 1;"/></g><g class="errorbar"><path class="yerror" d="M327.18,176.23h6m-3,0V197.85m-3,0h6" style="vector-effect: none; stroke-width: 1.2px; stroke: rgb(255, 127, 14); stroke-opacity: 1;"/></g><g class="errorbar"><path class="yerror" d="M339.32,179.16h6m-3,0V195.38m-3,0h6" style="vector-effect: none; stroke-width: 1.2px; stroke: rgb(255, 127, 14); stroke-opacity: 1;"/></g><g class="errorbar"><path class="yerror" d="M347.41,179.74h6m-3,0V194.95m-3,0h6" style="vector-effect: none; stroke-width: 1.2px; stroke: rgb(255, 127, 14); stroke-opacity: 1;"/></g><g class="errorbar"><path class="yerror" d="M359.55,181.72h6m-3,0V192.94m-3,0h6" style="vector-effect: none; stroke-width: 1.2px; stroke: rgb(255, 127, 14); stroke-opacity: 1;"/></g><g class="errorbar"><path class="yerror" d="M367.65,182.44h6m-3,0V191.99m-3,0h6" style="vector-effect: none; stroke-width: 1.2px; stroke: rgb(255, 127, 14); stroke-opacity: 1;"/></g><g class="errorbar"><path class="yerror" d="M379.79,183.67h6m-3,0V190.04m-3,0h6" style="vector-effect: none; stroke-width: 1.2px; stroke: rgb(255, 127, 14); stroke-opacity: 1;"/></g><g class="errorbar"><path class="yerror" d="M387.88,184.21h6m-3,0V188.71m-3,0h6" style="vector-effect: none; stroke-width: 1.2px; stroke: rgb(255, 127, 14); stroke-opacity: 1;"/></g><g class="errorbar"><path class="yerror" d="M400.02,184.5h6m-3,0V186.66m-3,0h6" style="vector-effect: none; stroke-width: 1.2px; stroke: rgb(255, 127, 14); stroke-opacity: 1;"/></g><g class="errorbar"><path class="yerror" d="M408.12,184.13h6m-3,0V185.42m-3,0h6" style="vector-effect: none; stroke-width: 1.2px; stroke: rgb(255, 127, 14); stroke-opacity: 1;"/></g><g class="errorbar"><path class="yerror" d="M420.26,183.15h6m-3,0V183.55m-3,0h6" style="vector-effect: none; stroke-width: 1.2px; stroke: rgb(255, 127, 14); stroke-opacity: 1;"/></g><g class="errorbar"><path class="yerror" d="M428.35,182.76h6m-3,0V182.76m-3,0h6" style="vector-effect: none; stroke-width: 1.2px; stroke: rgb(255, 127, 14); stroke-opacity: 1;"/></g></g><g class="lines"><path class="js-line" d="M26.65,221.65L38.79,191.05L46.89,148.68L59.03,129.04L67.12,136.13L75.21,113.23L87.36,116.46L99.5,122.98L107.59,140.83L119.73,155.01L127.83,154.45L148.06,164.84L160.2,167.32L168.3,170.01L180.44,172.99L208.77,177.92L220.91,179.56L249.24,182.55L261.38,183.56L301.85,186.05L309.94,186.39L350.41,187.35L362.55,187.33L390.88,186.46L403.02,185.58L431.35,182.76" style="vector-effect: none; fill: none; stroke: rgb(255, 127, 14); stroke-opacity: 1; stroke-width: 2px; opacity: 1;"/></g><g class="points"><path class="point" transform="translate(26.65,221.65)" d="M3,0A3,3 0 1,1 0,-3A3,3 0 0,1 3,0Z" style="opacity: 1; stroke-width: 0px; fill: rgb(255, 127, 14); fill-opacity: 1;"/><path class="point" transform="translate(38.79,191.05)" d="M3,0A3,3 0 1,1 0,-3A3,3 0 0,1 3,0Z" style="opacity: 1; stroke-width: 0px; fill: rgb(255, 127, 14); fill-opacity: 1;"/><path class="point" transform="translate(46.89,148.68)" d="M3,0A3,3 0 1,1 0,-3A3,3 0 0,1 3,0Z" style="opacity: 1; stroke-width: 0px; fill: rgb(255, 127, 14); fill-opacity: 1;"/><path class="point" transform="translate(59.03,129.04)" d="M3,0A3,3 0 1,1 0,-3A3,3 0 0,1 3,0Z" style="opacity: 1; stroke-width: 0px; fill: rgb(255, 127, 14); fill-opacity: 1;"/><path class="point" transform="translate(67.12,136.13)" d="M3,0A3,3 0 1,1 0,-3A3,3 0 0,1 3,0Z" style="opacity: 1; stroke-width: 0px; fill: rgb(255, 127, 14); fill-opacity: 1;"/><path class="point" transform="translate(75.21,113.23)" d="M3,0A3,3 0 1,1 0,-3A3,3 0 0,1 3,0Z" style="opacity: 1; stroke-width: 0px; fill: rgb(255, 127, 14); fill-opacity: 1;"/><path class="point" transform="translate(87.36,116.46)" d="M3,0A3,3 0 1,1 0,-3A3,3 0 0,1 3,0Z" style="opacity: 1; stroke-width: 0px; fill: rgb(255, 127, 14); fill-opacity: 1;"/><path class="point" transform="translate(99.5,122.98)" d="M3,0A3,3 0 1,1 0,-3A3,3 0 0,1 3,0Z" style="opacity: 1; stroke-width: 0px; fill: rgb(255, 127, 14); fill-opacity: 1;"/><path class="point" transform="translate(107.59,140.83)" d="M3,0A3,3 0 1,1 0,-3A3,3 0 0,1 3,0Z" style="opacity: 1; stroke-width: 0px; fill: rgb(255, 127, 14); fill-opacity: 1;"/><path class="point" transform="translate(119.73,155.01)" d="M3,0A3,3 0 1,1 0,-3A3,3 0 0,1 3,0Z" style="opacity: 1; stroke-width: 0px; fill: rgb(255, 127, 14); fill-opacity: 1;"/><path class="point" transform="translate(127.83,154.45)" d="M3,0A3,3 0 1,1 0,-3A3,3 0 0,1 3,0Z" style="opacity: 1; stroke-width: 0px; fill: rgb(255, 127, 14); fill-opacity: 1;"/><path class="point" transform="translate(139.97,161.03)" d="M3,0A3,3 0 1,1 0,-3A3,3 0 0,1 3,0Z" style="opacity: 1; stroke-width: 0px; fill: rgb(255, 127, 14); fill-opacity: 1;"/><path class="point" transform="translate(148.06,164.84)" d="M3,0A3,3 0 1,1 0,-3A3,3 0 0,1 3,0Z" style="opacity: 1; stroke-width: 0px; fill: rgb(255, 127, 14); fill-opacity: 1;"/><path class="point" transform="translate(160.2,167.32)" d="M3,0A3,3 0 1,1 0,-3A3,3 0 0,1 3,0Z" style="opacity: 1; stroke-width: 0px; fill: rgb(255, 127, 14); fill-opacity: 1;"/><path class="point" transform="translate(168.3,170.01)" d="M3,0A3,3 0 1,1 0,-3A3,3 0 0,1 3,0Z" style="opacity: 1; stroke-width: 0px; fill: rgb(255, 127, 14); fill-opacity: 1;"/><path class="point" transform="translate(180.44,172.99)" d="M3,0A3,3 0 1,1 0,-3A3,3 0 0,1 3,0Z" style="opacity: 1; stroke-width: 0px; fill: rgb(255, 127, 14); fill-opacity: 1;"/><path class="point" transform="translate(188.53,174.54)" d="M3,0A3,3 0 1,1 0,-3A3,3 0 0,1 3,0Z" style="opacity: 1; stroke-width: 0px; fill: rgb(255, 127, 14); fill-opacity: 1;"/><path class="point" transform="translate(200.67,176.67)" d="M3,0A3,3 0 1,1 0,-3A3,3 0 0,1 3,0Z" style="opacity: 1; stroke-width: 0px; fill: rgb(255, 127, 14); fill-opacity: 1;"/><path class="point" transform="translate(208.77,177.92)" d="M3,0A3,3 0 1,1 0,-3A3,3 0 0,1 3,0Z" style="opacity: 1; stroke-width: 0px; fill: rgb(255, 127, 14); fill-opacity: 1;"/><path class="point" transform="translate(220.91,179.56)" d="M3,0A3,3 0 1,1 0,-3A3,3 0 0,1 3,0Z" style="opacity: 1; stroke-width: 0px; fill: rgb(255, 127, 14); fill-opacity: 1;"/><path class="point" transform="translate(229,180.52)" d="M3,0A3,3 0 1,1 0,-3A3,3 0 0,1 3,0Z" style="opacity: 1; stroke-width: 0px; fill: rgb(255, 127, 14); fill-opacity: 1;"/><path class="point" transform="translate(241.14,181.8)" d="M3,0A3,3 0 1,1 0,-3A3,3 0 0,1 3,0Z" style="opacity: 1; stroke-width: 0px; fill: rgb(255, 127, 14); fill-opacity: 1;"/><path class="point" transform="translate(249.24,182.55)" d="M3,0A3,3 0 1,1 0,-3A3,3 0 0,1 3,0Z" style="opacity: 1; stroke-width: 0px; fill: rgb(255, 127, 14); fill-opacity: 1;"/><path class="point" transform="translate(261.38,183.56)" d="M3,0A3,3 0 1,1 0,-3A3,3 0 0,1 3,0Z" style="opacity: 1; stroke-width: 0px; fill: rgb(255, 127, 14); fill-opacity: 1;"/><path class="point" transform="translate(269.47,184.17)" d="M3,0A3,3 0 1,1 0,-3A3,3 0 0,1 3,0Z" style="opacity: 1; stroke-width: 0px; fill: rgb(255, 127, 14); fill-opacity: 1;"/><path class="point" transform="translate(277.56,184.71)" d="M3,0A3,3 0 1,1 0,-3A3,3 0 0,1 3,0Z" style="opacity: 1; stroke-width: 0px; fill: rgb(255, 127, 14); fill-opacity: 1;"/><path class="point" transform="translate(289.71,185.44)" d="M3,0A3,3 0 1,1 0,-3A3,3 0 0,1 3,0Z" style="opacity: 1; stroke-width: 0px; fill: rgb(255, 127, 14); fill-opacity: 1;"/><path class="point" transform="translate(301.85,186.05)" d="M3,0A3,3 0 1,1 0,-3A3,3 0 0,1 3,0Z" style="opacity: 1; stroke-width: 0px; fill: rgb(255, 127, 14); fill-opacity: 1;"/><path class="point" transform="translate(309.94,186.39)" d="M3,0A3,3 0 1,1 0,-3A3,3 0 0,1 3,0Z" style="opacity: 1; stroke-width: 0px; fill: rgb(255, 127, 14); fill-opacity: 1;"/><path class="point" transform="translate(322.08,186.82)" d="M3,0A3,3 0 1,1 0,-3A3,3 0 0,1 3,0Z" style="opacity: 1; stroke-width: 0px; fill: rgb(255, 127, 14); fill-opacity: 1;"/><path class="point" transform="translate(330.18,187.04)" d="M3,0A3,3 0 1,1 0,-3A3,3 0 0,1 3,0Z" style="opacity: 1; stroke-width: 0px; fill: rgb(255, 127, 14); fill-opacity: 1;"/><path class="point" transform="translate(342.32,187.27)" d="M3,0A3,3 0 1,1 0,-3A3,3 0 0,1 3,0Z" style="opacity: 1; stroke-width: 0px; fill: rgb(255, 127, 14); fill-opacity: 1;"/><path class="point" transform="translate(350.41,187.35)" d="M3,0A3,3 0 1,1 0,-3A3,3 0 0,1 3,0Z" style="opacity: 1; stroke-width: 0px; fill: rgb(255, 127, 14); fill-opacity: 1;"/><path class="point" transform="translate(362.55,187.33)" d="M3,0A3,3 0 1,1 0,-3A3,3 0 0,1 3,0Z" style="opacity: 1; stroke-width: 0px; fill: rgb(255, 127, 14); fill-opacity: 1;"/><path class="point" transform="translate(370.65,187.22)" d="M3,0A3,3 0 1,1 0,-3A3,3 0 0,1 3,0Z" style="opacity: 1; stroke-width: 0px; fill: rgb(255, 127, 14); fill-opacity: 1;"/><path class="point" transform="translate(382.79,186.86)" d="M3,0A3,3 0 1,1 0,-3A3,3 0 0,1 3,0Z" style="opacity: 1; stroke-width: 0px; fill: rgb(255, 127, 14); fill-opacity: 1;"/><path class="point" transform="translate(390.88,186.46)" d="M3,0A3,3 0 1,1 0,-3A3,3 0 0,1 3,0Z" style="opacity: 1; stroke-width: 0px; fill: rgb(255, 127, 14); fill-opacity: 1;"/><path class="point" transform="translate(403.02,185.58)" d="M3,0A3,3 0 1,1 0,-3A3,3 0 0,1 3,0Z" style="opacity: 1; stroke-width: 0px; fill: rgb(255, 127, 14); fill-opacity: 1;"/><path class="point" transform="translate(411.12,184.77)" d="M3,0A3,3 0 1,1 0,-3A3,3 0 0,1 3,0Z" style="opacity: 1; stroke-width: 0px; fill: rgb(255, 127, 14); fill-opacity: 1;"/><path class="point" transform="translate(423.26,183.35)" d="M3,0A3,3 0 1,1 0,-3A3,3 0 0,1 3,0Z" style="opacity: 1; stroke-width: 0px; fill: rgb(255, 127, 14); fill-opacity: 1;"/><path class="point" transform="translate(431.35,182.76)" d="M3,0A3,3 0 1,1 0,-3A3,3 0 0,1 3,0Z" style="opacity: 1; stroke-width: 0px; fill: rgb(255, 127, 14); fill-opacity: 1;"/></g><g class="text"/></g></g></g></g><path class="xlines-above crisp" d="M0,0" style="fill: none;"/><path class="ylines-above crisp" d="M0,0" style="fill: none;"/><g class="overlines-above"/><g class="xaxislayer-above"><g class="xtick"><text text-anchor="middle" x="0" y="433" transform="translate(106.65,0)" style="font-family: 'Open Sans', verdana, arial, sans-serif; font-size: 12px; fill: rgb(42, 63, 95); fill-opacity: 1; white-space: pre; opacity: 1;">0</text></g><g class="xtick"><text text-anchor="middle" x="0" y="433" style="font-family: 'Open Sans', verdana, arial, sans-serif; font-size: 12px; fill: rgb(42, 63, 95); fill-opacity: 1; white-space: pre; opacity: 1;" transform="translate(187.59,0)">0.2</text></g><g class="xtick"><text text-anchor="middle" x="0" y="433" style="font-family: 'Open Sans', verdana, arial, sans-serif; font-size: 12px; fill: rgb(42, 63, 95); fill-opacity: 1; white-space: pre; opacity: 1;" transform="translate(268.53,0)">0.4</text></g><g class="xtick"><text text-anchor="middle" x="0" y="433" style="font-family: 'Open Sans', verdana, arial, sans-serif; font-size: 12px; fill: rgb(42, 63, 95); fill-opacity: 1; white-space: pre; opacity: 1;" transform="translate(349.47,0)">0.6</text></g><g class="xtick"><text text-anchor="middle" x="0" y="433" style="font-family: 'Open Sans', verdana, arial, sans-serif; font-size: 12px; fill: rgb(42, 63, 95); fill-opacity: 1; white-space: pre; opacity: 1;" transform="translate(430.41,0)">0.8</text></g><g class="xtick"><text text-anchor="middle" x="0" y="433" style="font-family: 'Open Sans', verdana, arial, sans-serif; font-size: 12px; fill: rgb(42, 63, 95); fill-opacity: 1; white-space: pre; opacity: 1;" transform="translate(511.35,0)">1</text></g></g><g class="yaxislayer-above"><g class="ytick"><text text-anchor="end" x="79" y="4.199999999999999" transform="translate(0,391.35)" style="font-family: 'Open Sans', verdana, arial, sans-serif; font-size: 12px; fill: rgb(42, 63, 95); fill-opacity: 1; white-space: pre; opacity: 1;">−0.04</text></g><g class="ytick"><text text-anchor="end" x="79" y="4.199999999999999" style="font-family: 'Open Sans', verdana, arial, sans-serif; font-size: 12px; fill: rgb(42, 63, 95); fill-opacity: 1; white-space: pre; opacity: 1;" transform="translate(0,337.05)">−0.02</text></g><g class="ytick"><text text-anchor="end" x="79" y="4.199999999999999" style="font-family: 'Open Sans', verdana, arial, sans-serif; font-size: 12px; fill: rgb(42, 63, 95); fill-opacity: 1; white-space: pre; opacity: 1;" transform="translate(0,282.76)">0</text></g><g class="ytick"><text text-anchor="end" x="79" y="4.199999999999999" style="font-family: 'Open Sans', verdana, arial, sans-serif; font-size: 12px; fill: rgb(42, 63, 95); fill-opacity: 1; white-space: pre; opacity: 1;" transform="translate(0,228.46)">0.02</text></g><g class="ytick"><text text-anchor="end" x="79" y="4.199999999999999" style="font-family: 'Open Sans', verdana, arial, sans-serif; font-size: 12px; fill: rgb(42, 63, 95); fill-opacity: 1; white-space: pre; opacity: 1;" transform="translate(0,174.17000000000002)">0.04</text></g><g class="ytick"><text text-anchor="end" x="79" y="4.199999999999999" style="font-family: 'Open Sans', verdana, arial, sans-serif; font-size: 12px; fill: rgb(42, 63, 95); fill-opacity: 1; white-space: pre; opacity: 1;" transform="translate(0,119.87)">0.06</text></g></g><g class="overaxes-above"/></g></g><g class="polarlayer"/><g class="smithlayer"/><g class="ternarylayer"/><g class="geolayer"/><g class="funnelarealayer"/><g class="pielayer"/><g class="iciclelayer"/><g class="treemaplayer"/><g class="sunburstlayer"/><g class="glimages"/><defs id="topdefs-4ea0fa"><g class="clips"/><clipPath id="legend4ea0fa"><rect width="141" height="67" x="0" y="0"/></clipPath></defs><g class="layer-above"><g class="imagelayer"/><g class="shapelayer"/></g><g class="infolayer"><g class="legend" pointer-events="all" transform="translate(547.1600000000001,100)"><rect class="bg" shape-rendering="crispEdges" style="stroke: rgb(68, 68, 68); stroke-opacity: 1; fill: rgb(255, 255, 255); fill-opacity: 1; stroke-width: 0px;" width="141" height="67" x="0" y="0"/><g class="scrollbox" transform="" clip-path="url(#legend4ea0fa)"><text class="legendtitletext" text-anchor="start" x="2" y="18.2" style="font-family: 'Open Sans', verdana, arial, sans-serif; font-size: 14px; fill: rgb(42, 63, 95); fill-opacity: 1; white-space: pre;">Comparison</text><g class="groups"><g class="traces" transform="translate(0,32.7)" style="opacity: 1;"><text class="legendtext" text-anchor="start" x="40" y="4.680000000000001" style="font-family: 'Open Sans', verdana, arial, sans-serif; font-size: 12px; fill: rgb(42, 63, 95); fill-opacity: 1; white-space: pre;">euc_ot − euc_det</text><g class="layers" style="opacity: 1;"><g class="legendfill"/><g class="legendlines"><path class="js-line" d="M5,0h30" style="fill: none; stroke: rgb(31, 119, 180); stroke-opacity: 1; stroke-width: 2px;"/></g><g class="legendsymbols"><g class="legendpoints"><path class="scatterpts" transform="translate(20,0)" d="M3,0A3,3 0 1,1 0,-3A3,3 0 0,1 3,0Z" style="opacity: 1; stroke-width: 0px; fill: rgb(31, 119, 180); fill-opacity: 1;"/></g></g></g><rect class="legendtoggle" x="0" y="-9.5" width="135.75" height="19" style="fill: rgb(0, 0, 0); fill-opacity: 0;"/></g><g class="traces" transform="translate(0,51.7)" style="opacity: 1;"><text class="legendtext" text-anchor="start" x="40" y="4.680000000000001" style="font-family: 'Open Sans', verdana, arial, sans-serif; font-size: 12px; fill: rgb(42, 63, 95); fill-opacity: 1; white-space: pre;">euc_sb − euc_det</text><g class="layers" style="opacity: 1;"><g class="legendfill"/><g class="legendlines"><path class="js-line" d="M5,0h30" style="fill: none; stroke: rgb(255, 127, 14); stroke-opacity: 1; stroke-width: 2px;"/></g><g class="legendsymbols"><g class="legendpoints"><path class="scatterpts" transform="translate(20,0)" d="M3,0A3,3 0 1,1 0,-3A3,3 0 0,1 3,0Z" style="opacity: 1; stroke-width: 0px; fill: rgb(255, 127, 14); fill-opacity: 1;"/></g></g></g><rect class="legendtoggle" x="0" y="-9.5" width="135.75" height="19" style="fill: rgb(0, 0, 0); fill-opacity: 0;"/></g></g></g><rect class="scrollbar" rx="20" ry="3" width="0" height="0" style="fill: rgb(128, 139, 164); fill-opacity: 1;" x="0" y="0"/></g><g class="g-gtitle"><text class="gtitle" x="35" y="50" text-anchor="start" dy="0em" style="opacity: 1; font-family: 'Open Sans', verdana, arial, sans-serif; font-size: 17px; fill: rgb(42, 63, 95); fill-opacity: 1; white-space: pre;">Performance Benefits — Euclidean OT (Δ vs SNR, avg over dims)</text></g><g class="g-xtitle"><text class="xtitle" x="309" y="460.3" text-anchor="middle" style="opacity: 1; font-family: 'Open Sans', verdana, arial, sans-serif; font-size: 14px; fill: rgb(42, 63, 95); fill-opacity: 1; white-space: pre;">Signal-to-Noise Ratio (SNR)</text></g><g class="g-ytitle"><text class="ytitle" transform="rotate(-90,29.225,260)" x="29.225" y="260" text-anchor="middle" style="opacity: 1; font-family: 'Open Sans', verdana, arial, sans-serif; font-size: 14px; fill: rgb(42, 63, 95); fill-opacity: 1; white-space: pre;">Δ Mean Cosine (avg over dims ± 95% CI)</text></g></g></svg>